<?xml version="1.0" standalone="no"?>
<!DOCTYPE svg PUBLIC "-//W3C//DTD SVG 20010904//EN"
 "http://www.w3.org/TR/2001/REC-SVG-20010904/DTD/svg10.dtd">
<svg version="1.0" xmlns="http://www.w3.org/2000/svg"
 width="640.000000pt" height="640.000000pt" viewBox="0 0 640.000000 640.000000"
 preserveAspectRatio="xMidYMid meet">
<metadata>
Created by potrace 1.14, written by Peter Selinger 2001-2017
</metadata>
<g transform="translate(0.000000,640.000000) scale(0.100000,-0.100000)"
fill="#000000" stroke="none">
<path d="M5686 6348 c3 -4 0 -8 -6 -8 -7 0 -10 -7 -6 -15 3 -8 1 -15 -5 -15
-6 0 -7 -5 -4 -10 4 -6 10 -8 15 -5 5 3 13 -2 18 -11 8 -15 11 -14 24 5 8 11
18 18 22 13 5 -4 6 2 4 13 -3 14 -11 19 -28 18 -14 -1 -19 1 -12 3 19 9 14 23
-7 21 -11 0 -17 -5 -15 -9z"/>
<path d="M5930 6315 l-24 -26 42 23 c33 19 43 21 54 10 19 -19 -2 -45 -48 -59
-35 -10 -37 -12 -16 -19 12 -3 22 -9 22 -13 1 -3 9 -16 20 -29 16 -19 23 -21
37 -12 15 10 15 11 1 6 -19 -6 -43 18 -33 34 8 14 23 13 28 -2 2 -7 3 -5 1 5
-7 48 33 64 60 25 20 -29 21 -77 1 -84 -8 -4 -12 -11 -9 -16 8 -13 -15 -28
-43 -28 -12 0 -23 8 -26 18 -4 16 -5 16 -6 0 0 -10 -5 -18 -10 -18 -14 0 -61
60 -61 77 0 9 -3 14 -6 10 -8 -8 12 -64 29 -81 7 -7 27 -17 45 -21 51 -11 48
-25 -6 -25 -63 0 -112 10 -112 22 0 5 9 22 21 36 12 16 16 28 10 30 -6 2 -11
14 -11 27 0 23 -41 65 -64 65 -6 0 4 -9 22 -20 38 -23 39 -26 10 -51 -37 -30
-68 -22 -75 20 -1 7 -6 18 -12 24 -22 22 -13 -78 9 -106 13 -16 16 -28 10 -32
-15 -9 -1 -27 16 -21 8 3 14 1 14 -5 0 -7 -10 -9 -25 -5 -16 4 -31 1 -39 -7
-11 -11 -7 -13 24 -14 20 -1 66 -12 101 -24 70 -23 84 -27 114 -29 13 -1 3 -9
-30 -25 -27 -13 -54 -24 -59 -25 -10 0 -203 -110 -249 -142 -15 -10 -52 -32
-82 -49 l-55 -30 0 32 c0 24 -10 40 -42 70 -24 22 -53 42 -66 46 -46 11 -105
-44 -80 -74 7 -9 7 -18 -2 -28 -6 -8 -9 -19 -5 -26 5 -8 -1 -9 -23 -4 -17 3
-39 2 -49 -4 -15 -9 -12 -10 12 -5 41 8 77 -22 79 -63 1 -19 5 -29 13 -26 6 3
10 10 7 18 -3 7 3 21 13 31 17 17 17 18 -1 11 -23 -9 -36 7 -36 45 0 33 13 43
30 23 9 -11 16 -12 26 -4 7 6 17 8 23 5 5 -4 11 4 13 16 4 33 45 31 66 -4 14
-23 15 -33 4 -60 -6 -17 -10 -33 -8 -35 1 -2 23 8 47 22 24 14 51 28 59 32 8
4 73 42 143 85 70 43 130 78 134 78 3 0 52 23 109 50 76 37 111 49 129 44 20
-5 25 -2 26 12 0 11 3 14 6 7 6 -17 43 2 43 22 0 7 21 21 48 31 58 22 110 54
117 73 9 24 -4 25 -28 3 -39 -37 -153 -82 -190 -75 -58 11 -78 47 -46 84 38
44 23 90 -48 144 -54 42 -81 44 -113 10z m134 -221 c3 -8 2 -12 -4 -9 -6 3
-10 10 -10 16 0 14 7 11 14 -7z m-176 -21 c-10 -2 -26 -2 -35 0 -10 3 -2 5 17
5 19 0 27 -2 18 -5z m221 -12 c13 -1 21 -4 18 -8 -10 -10 -141 -3 -152 8 -7 7
10 8 50 5 33 -3 71 -5 84 -5z m-682 -207 c8 -21 -15 -42 -55 -50 -26 -5 -32
-3 -32 10 0 41 74 75 87 40z"/>
<path d="M5527 6199 c7 -7 15 -10 18 -7 3 3 -2 9 -12 12 -14 6 -15 5 -6 -5z"/>
<path d="M6376 6128 c15 -17 16 -20 3 -15 -11 3 -21 -3 -30 -19 -7 -13 -17
-23 -22 -21 -6 2 -21 -8 -34 -21 -15 -15 -31 -22 -44 -19 -10 3 -17 2 -14 -3
2 -4 -19 -15 -48 -24 -29 -9 -67 -25 -86 -37 -18 -11 -41 -17 -51 -14 -13 4
-23 -1 -31 -13 -7 -11 -18 -18 -25 -15 -6 2 -21 -7 -32 -21 -13 -17 -30 -26
-47 -26 -27 0 -27 -1 -12 -18 24 -27 21 -38 -5 -16 -21 19 -21 19 -16 -3 7
-27 -24 -53 -87 -73 -22 -7 -45 -17 -52 -22 -7 -5 -18 -6 -24 -2 -7 4 -9 3 -6
-3 9 -14 -49 -23 -62 -10 -6 6 -14 5 -23 -2 -62 -53 -73 -59 -84 -50 -6 5 -18
7 -27 3 -8 -3 -29 2 -47 11 -30 16 -30 15 9 -24 35 -35 41 -47 41 -84 0 -43
-13 -67 -37 -67 -7 0 -13 8 -14 18 0 13 -3 11 -10 -6 -5 -13 -16 -30 -24 -39
-12 -11 -13 -19 -5 -28 6 -8 16 -26 21 -42 8 -25 8 -25 3 7 -10 63 -10 65 16
66 62 4 80 -71 34 -137 -32 -47 -76 -65 -100 -41 -15 15 -16 15 -10 -5 5 -15
-1 -29 -17 -49 -19 -22 -34 -28 -80 -32 -54 -4 -58 -3 -87 28 -30 32 -37 64
-21 105 9 22 61 30 61 9 0 -7 4 -15 9 -18 4 -3 6 6 3 19 -3 19 -11 25 -31 25
-15 0 -38 8 -51 17 l-25 17 19 -22 c20 -23 17 -26 -29 -23 -18 1 -17 0 3 -9
19 -8 21 -13 12 -30 -9 -17 -7 -29 12 -63 29 -53 81 -81 133 -71 41 7 101 46
98 62 -2 7 9 12 26 12 44 0 111 81 111 134 0 22 -7 47 -16 57 -10 11 -14 25
-9 36 6 17 7 17 20 -2 28 -40 37 -46 57 -40 11 4 26 1 36 -8 16 -14 134 -29
126 -16 -2 4 7 14 21 23 26 17 56 97 48 127 -3 9 -22 35 -44 57 l-39 41 147
87 c80 47 160 101 178 118 21 21 53 38 96 50 84 24 177 56 212 73 24 12 27 19
27 62 0 35 -4 51 -16 55 -26 10 -28 7 -8 -16z m-647 -449 c17 -6 31 -14 31
-19 0 -4 10 -18 23 -32 18 -19 22 -33 19 -62 -2 -20 -8 -36 -13 -36 -21 0 -58
24 -62 41 -5 20 -27 27 -27 8 0 -5 5 -7 10 -4 14 9 12 -9 -2 -24 -11 -10 -10
-12 2 -9 8 1 30 -3 48 -11 l33 -14 -22 -23 c-41 -44 -143 -45 -137 -1 2 12 11
23 23 25 11 2 25 8 30 14 7 6 5 8 -5 6 -9 -2 -16 6 -18 20 -2 16 2 22 15 23
10 1 1 6 -19 11 -32 8 -38 14 -38 38 0 22 7 30 38 43 20 8 37 15 38 16 1 1 15
-4 33 -10z m-131 -86 c5 -10 10 -37 11 -60 1 -38 -2 -43 -20 -43 -31 0 -48 28
-49 78 0 38 2 42 25 42 13 0 28 -8 33 -17z"/>
<path d="M4897 5983 c-12 -11 -7 -41 7 -46 8 -3 22 0 32 8 15 11 16 15 5 29
-14 17 -33 21 -44 9z"/>
<path d="M5810 5832 c0 -5 6 -15 14 -21 12 -10 14 -9 12 5 -3 19 -26 33 -26
16z"/>
<path d="M5030 5815 c-9 -10 -3 -19 27 -41 51 -38 113 -96 113 -107 0 -14 -39
15 -110 82 -36 33 -68 61 -72 61 -16 0 -7 -26 12 -38 12 -7 18 -18 14 -24 -4
-6 -3 -8 3 -5 6 4 27 -8 47 -26 39 -36 46 -53 19 -43 -14 6 -14 3 3 -16 12
-13 26 -32 32 -43 7 -13 21 -20 39 -20 18 0 27 -5 25 -13 -2 -10 2 -10 20 -1
13 7 37 16 53 20 l30 7 -30 1 c-16 0 -36 -3 -44 -8 -36 -23 -48 52 -15 90 17
19 3 33 -93 97 -50 34 -63 39 -73 27z m109 -166 c23 -21 24 -40 3 -47 -7 -2
-12 3 -12 11 0 8 -7 20 -15 27 -16 13 -20 30 -7 30 5 0 18 -9 31 -21z"/>
<path d="M5780 5800 c13 -24 35 -27 26 -4 -3 9 -6 18 -6 20 0 2 -7 4 -15 4
-13 0 -14 -4 -5 -20z"/>
<path d="M4727 5776 c-7 -19 18 -47 37 -40 9 3 16 12 16 19 0 25 -45 42 -53
21z"/>
<path d="M5430 5746 c0 -9 -4 -15 -9 -12 -5 3 -11 -1 -15 -9 -3 -9 0 -15 9
-15 14 0 31 37 21 47 -3 4 -6 -1 -6 -11z"/>
<path d="M4945 5686 c-16 -16 -27 -20 -34 -13 -5 5 -2 -6 7 -25 14 -29 21 -33
42 -29 24 5 24 6 3 9 -31 5 -30 37 2 58 24 15 33 15 80 -1 13 -4 12 -1 -5 9
-36 22 -67 19 -95 -8z"/>
<path d="M4600 5676 c0 -2 7 -9 15 -16 9 -7 15 -8 15 -2 0 5 -7 12 -15 16 -8
3 -15 4 -15 2z"/>
<path d="M4588 5633 c7 -3 16 -2 19 1 4 3 -2 6 -13 5 -11 0 -14 -3 -6 -6z"/>
<path d="M4611 5616 c-12 -12 -21 -29 -21 -37 1 -8 8 -2 16 14 16 29 33 34 53
15 10 -11 11 -10 6 4 -10 27 -31 28 -54 4z"/>
<path d="M5313 5628 c-20 -26 -26 -41 -15 -34 12 7 36 46 29 46 -3 0 -9 -6
-14 -12z"/>
<path d="M4736 5599 c-11 -10 -16 -22 -13 -26 4 -3 7 -1 7 5 0 7 7 12 15 12 8
0 15 7 15 15 0 18 -1 18 -24 -6z"/>
<path d="M5030 5616 c0 -2 8 -10 18 -17 15 -13 16 -12 3 4 -13 16 -21 21 -21
13z"/>
<path d="M4537 5580 c-3 -11 -1 -20 4 -20 5 0 9 9 9 20 0 11 -2 20 -4 20 -2 0
-6 -9 -9 -20z"/>
<path d="M4674 5582 c4 -7 2 -17 -4 -24 -28 -34 -58 -87 -52 -93 4 -4 -4 -4
-18 -1 -19 6 -21 5 -10 -3 13 -9 13 -11 -2 -11 -12 0 -15 -5 -11 -17 4 -9 2
-14 -3 -10 -13 8 -13 -36 0 -45 7 -5 7 -8 1 -9 -5 0 -20 -2 -33 -3 -12 -2 -33
-13 -46 -25 -15 -14 -30 -20 -37 -16 -9 6 -8 11 3 19 29 22 68 89 68 119 0 21
10 39 38 65 20 19 27 30 15 24 -33 -18 -63 -62 -63 -92 0 -27 -52 -110 -69
-110 -17 0 -22 19 -11 40 8 16 8 20 -4 20 -10 0 -14 -11 -13 -37 1 -31 7 -41
32 -55 30 -17 30 -17 5 -19 -14 -1 -34 -3 -45 -5 -11 -1 -58 -7 -104 -13 -46
-6 -92 -13 -103 -17 -17 -5 -18 -3 -9 13 12 23 12 81 -1 105 -13 26 -45 40
-102 44 -66 5 -83 -1 -101 -36 -20 -38 -19 -46 6 -71 16 -16 23 -18 34 -9 8 7
20 10 27 8 17 -6 38 36 31 61 -7 28 19 37 57 21 29 -12 48 -48 36 -69 -3 -5
-1 -11 6 -13 17 -6 -17 -58 -38 -58 -8 0 -12 -4 -9 -10 4 -6 -6 -10 -22 -10
-27 0 -70 22 -85 44 -4 6 -10 8 -13 4 -4 -3 3 -15 15 -26 l21 -19 -47 -7 c-64
-8 -104 -8 -104 3 0 12 -47 61 -53 55 -2 -3 9 -18 25 -35 26 -26 30 -35 25
-69 -4 -32 -2 -40 14 -45 10 -4 22 -18 25 -33 10 -45 14 -49 11 -11 -2 27 1
35 14 36 10 1 46 8 81 17 62 15 138 26 138 21 0 -1 -6 -15 -14 -30 -16 -30 -6
-75 22 -107 14 -16 17 -16 51 1 47 24 66 59 57 104 l-6 35 71 16 c95 21 103
20 120 -10 11 -22 18 -25 46 -21 23 4 33 2 33 -7 0 -18 31 -25 82 -19 57 8 95
36 103 76 13 62 16 68 38 65 13 -2 24 -14 30 -33 13 -40 43 -72 81 -84 36 -12
122 -11 103 1 -9 6 -9 8 0 8 19 0 73 57 73 77 0 10 14 25 32 33 18 8 34 21 36
29 3 8 -7 5 -26 -9 -24 -18 -34 -20 -50 -11 -15 8 -23 8 -28 -1 -4 -6 -3 -8 4
-4 19 12 23 -12 8 -49 -21 -49 -91 -82 -140 -65 -57 19 -77 45 -74 98 3 45 4
47 34 47 18 0 30 5 27 10 -4 13 -73 7 -73 -6 0 -17 -44 -27 -65 -16 -41 21
-46 40 -18 69 30 32 28 40 -6 27 -16 -6 -21 -14 -17 -25 5 -13 2 -15 -16 -8
-13 4 -44 7 -70 7 -42 0 -48 2 -48 21 0 12 13 37 30 56 16 19 29 43 30 53 0 9
9 26 20 37 23 23 25 36 8 46 -7 4 -8 3 -4 -4z m-611 -181 c6 -24 -29 -84 -46
-78 -19 6 -19 50 0 74 22 28 39 29 46 4z m625 -47 c12 -8 22 -22 22 -30 0 -8
4 -13 9 -9 14 8 31 -28 31 -66 0 -28 -3 -31 -25 -27 -13 3 -22 1 -19 -3 3 -5
13 -9 22 -9 13 -1 8 -8 -16 -30 -27 -25 -41 -30 -82 -30 -28 0 -50 2 -50 4 0
2 -3 11 -6 20 -4 11 2 19 22 26 21 8 24 14 16 22 -18 18 -14 46 6 51 11 3 8 5
-8 6 -57 2 -68 54 -17 76 42 19 68 18 95 -1z m-138 -12 c0 -5 -11 -14 -25 -20
-28 -13 -35 1 -7 17 21 13 32 14 32 3z m-11 -56 c20 -24 24 -103 6 -110 -25
-9 -43 4 -55 39 -21 62 15 113 49 71z m-126 -23 c-7 -2 -21 -2 -30 0 -10 3 -4
5 12 5 17 0 24 -2 18 -5z m-206 -30 c-10 -9 -56 -10 -51 -1 3 4 17 8 31 8 15
0 23 -3 20 -7z m-112 -23 c-28 -12 -37 -12 -30 0 3 6 16 10 28 9 21 0 21 -1 2
-9z m-62 -11 c17 -1 15 -3 -8 -9 -16 -4 -38 -8 -48 -9 -15 -1 -16 1 -5 14 7 8
19 12 26 10 8 -3 23 -6 35 -6z m-89 -14 c3 -9 0 -15 -8 -15 -7 0 -13 7 -13 15
0 8 4 15 8 15 4 0 9 -7 13 -15z m303 -67 c16 -13 17 -44 1 -54 -7 -5 -9 -2 -4
7 4 8 -1 3 -13 -11 -25 -32 -40 -19 -46 39 -4 42 -3 43 23 36 15 -4 33 -11 39
-17z"/>
<path d="M4645 5270 c3 -5 10 -10 16 -10 5 0 9 5 9 10 0 6 -7 10 -16 10 -8 0
-12 -4 -9 -10z"/>
<path d="M4651 5236 c-9 -11 -6 -12 14 -8 14 2 22 8 19 13 -8 13 -20 11 -33
-5z"/>
<path d="M3255 5570 c3 -5 11 -10 16 -10 6 0 7 5 4 10 -3 6 -11 10 -16 10 -6
0 -7 -4 -4 -10z"/>
<path d="M3290 5561 c0 -6 9 -11 20 -11 26 0 61 -67 42 -79 -7 -4 2 -7 22 -7
28 1 36 6 41 24 6 23 29 28 55 12 10 -6 14 -29 15 -83 0 -78 -15 -123 -46
-132 -9 -3 -19 -15 -22 -25 -3 -13 -14 -20 -31 -20 -14 0 -37 -11 -51 -24 -15
-14 -44 -27 -70 -30 -48 -8 -115 1 -115 15 0 12 66 28 90 22 18 -5 20 -1 20
36 0 48 21 96 50 111 13 7 20 21 19 38 0 27 0 27 -10 4 -5 -13 -13 -20 -19
-17 -9 6 -15 -8 -11 -29 1 -5 -6 -6 -15 -2 -12 4 -15 2 -10 -9 3 -8 1 -15 -4
-15 -6 0 -10 -7 -10 -15 0 -8 -5 -15 -11 -15 -7 0 -10 -12 -7 -30 4 -27 2 -30
-24 -30 -18 0 -36 -9 -50 -25 -22 -26 -52 -33 -63 -15 -3 6 1 13 9 16 9 3 32
28 51 54 30 41 34 51 25 71 l-11 24 5 -25 c7 -32 -57 -120 -86 -120 -16 0 -8
57 11 74 15 14 17 22 9 44 -15 39 10 94 53 115 27 13 30 17 13 17 -24 0 -84
-61 -84 -85 0 -11 -11 -15 -38 -15 -47 0 -231 -35 -297 -56 -27 -10 -74 -28
-103 -41 -29 -13 -58 -21 -64 -17 -6 4 -8 3 -5 -3 4 -6 -7 -16 -23 -23 -17 -7
-55 -30 -86 -51 -30 -22 -60 -37 -65 -33 -5 3 -8 2 -7 -3 4 -11 -142 -149
-153 -146 -5 2 -8 0 -7 -5 4 -14 -104 -152 -115 -145 -5 3 -7 1 -4 -4 7 -11
-14 -61 -45 -105 -11 -16 -17 -28 -13 -28 3 0 -3 -17 -14 -37 -11 -21 -29 -69
-41 -108 -12 -38 -24 -77 -27 -85 -4 -8 -6 -18 -5 -21 1 -4 -5 -42 -12 -85 -8
-43 -12 -84 -9 -91 3 -7 0 -13 -6 -13 -6 0 -11 4 -11 10 0 5 -14 17 -30 25
-24 12 -39 14 -66 6 -35 -10 -35 -9 -21 12 26 42 38 89 25 104 -17 21 -48 36
-48 23 0 -5 7 -10 15 -10 8 0 15 -7 15 -15 0 -14 -14 -19 -70 -28 -20 -3 -18
-5 8 -6 18 0 42 4 53 9 16 9 19 7 19 -10 0 -15 -7 -20 -28 -20 -18 0 -37 -9
-51 -26 l-22 -25 -19 23 c-11 13 -19 19 -20 14 0 -5 -7 -3 -15 4 -8 7 -15 8
-15 3 0 -5 -13 -8 -30 -7 -16 1 -30 -2 -30 -8 0 -5 -10 -6 -22 -3 -22 7 -22 6
-4 -7 14 -11 26 -13 45 -5 21 8 37 5 74 -11 l48 -21 28 31 c35 40 61 30 31
-12 -22 -31 -26 -45 -8 -34 7 4 8 3 4 -5 -4 -6 -11 -9 -15 -6 -5 2 -16 -4 -26
-15 -10 -11 -26 -20 -35 -20 -10 0 -43 -11 -74 -25 -31 -14 -63 -25 -71 -25
-8 0 -15 -4 -15 -9 0 -4 10 -6 23 -4 32 6 50 -17 38 -50 -8 -20 -7 -25 3 -21
7 3 19 -3 27 -12 11 -14 11 -18 -6 -30 -30 -22 -48 -18 -39 8 6 20 5 21 -10 9
-12 -10 -14 -17 -5 -27 7 -8 9 -29 6 -49 -3 -19 -2 -35 4 -35 5 0 8 3 8 8 -7
41 4 58 53 85 40 23 53 26 59 15 13 -20 11 -26 -17 -64 -16 -20 -41 -38 -63
-45 -32 -10 -43 -8 -78 9 -51 26 -61 57 -24 72 l26 10 -27 -5 c-16 -3 -28 0
-30 7 -9 27 -14 -9 -6 -40 16 -58 106 -91 170 -62 34 16 71 77 64 106 -4 14
-2 24 4 24 6 0 15 11 21 24 9 19 7 30 -13 62 -23 38 -24 40 -6 57 10 9 18 13
18 7 0 -5 5 -10 11 -10 6 0 20 -11 31 -25 21 -27 65 -33 112 -15 25 9 26 8 26
-23 0 -62 29 -223 55 -304 36 -116 100 -248 152 -318 l23 -30 57 64 c32 36 74
79 93 95 19 17 118 115 220 219 l185 187 51 0 c39 0 67 -8 118 -35 86 -46 255
-85 368 -85 58 0 119 9 203 30 66 16 151 32 190 36 l70 6 111 -119 c61 -65
130 -140 152 -168 65 -81 120 -140 123 -135 15 20 80 164 94 205 58 176 80
399 54 564 -7 47 -13 88 -14 91 0 3 -3 10 -6 15 -4 6 -10 26 -13 45 -9 42 -12
51 -62 159 -45 99 -115 209 -167 266 -20 22 -37 46 -37 53 0 7 -4 10 -10 7 -6
-3 -10 4 -10 17 0 21 -2 20 -19 -8 -25 -41 -38 -49 -57 -33 -13 11 -14 9 -8
-15 14 -56 -66 -102 -125 -71 -26 13 -31 22 -31 51 0 39 21 54 45 34 13 -11
14 -10 10 3 -4 9 -22 17 -44 19 -26 2 -37 0 -34 -8 6 -17 -25 -25 -47 -12 -44
28 -54 107 -17 140 21 18 22 25 14 48 -9 23 -18 29 -59 33 -26 3 -56 11 -66
16 -19 11 36 6 96 -9 24 -6 32 -5 32 5 0 8 7 21 16 29 8 9 12 16 7 16 -5 0
-13 -4 -19 -10 -7 -7 -33 0 -77 18 -66 28 -89 42 -71 42 10 0 1 144 -11 173
-10 24 -61 23 -77 -3 -14 -22 -28 -26 -28 -10 0 6 -5 16 -10 23 -6 7 -16 19
-23 28 -15 21 -57 35 -57 20z m10 -413 c11 -12 20 -16 20 -10 0 14 34 16 59 2
29 -15 45 -64 31 -90 -9 -16 -9 -25 -1 -33 29 -29 -8 -117 -48 -117 -10 0 -26
-9 -35 -19 -25 -28 -64 -35 -91 -17 -29 19 -39 49 -26 75 9 17 8 18 -11 13
-49 -12 -68 81 -23 116 14 11 25 27 25 36 0 21 44 66 64 66 8 0 24 -10 36 -22z
m248 -104 l23 -22 -31 -22 c-17 -12 -37 -19 -45 -16 -16 6 -34 63 -27 88 3 14
8 15 30 5 15 -6 37 -21 50 -33z m-1618 -769 c27 -28 19 -45 -21 -45 -21 0 -29
-5 -30 -17 -1 -10 -5 -2 -9 17 -18 74 12 96 60 45z m-195 -82 c28 -31 33 -71
11 -79 -21 -8 -86 47 -86 72 0 43 38 47 75 7z"/>
<path d="M3272 5023 c2 -10 10 -18 18 -18 8 0 16 8 18 18 2 12 -3 17 -18 17
-15 0 -20 -5 -18 -17z"/>
<path d="M4477 5539 c-23 -25 -27 -38 -26 -74 2 -25 5 -42 8 -39 3 3 4 21 2
40 -2 27 4 40 28 65 17 17 31 32 31 35 0 12 -18 0 -43 -27z"/>
<path d="M4779 5498 c-2 -42 -1 -74 4 -71 4 2 7 18 7 34 0 17 5 39 10 50 7 12
7 19 1 19 -5 0 -11 10 -13 23 -3 12 -6 -12 -9 -55z"/>
<path d="M5277 5549 c4 -14 0 -19 -18 -20 -16 -1 -18 -3 -7 -6 9 -2 19 -11 22
-19 5 -12 1 -14 -17 -9 -15 4 -18 3 -8 -3 11 -8 11 -10 0 -14 -8 -3 -5 -7 9
-10 12 -4 20 -2 16 3 -3 5 2 6 10 3 8 -3 13 -11 10 -17 -2 -7 6 -12 21 -12 14
0 25 4 25 8 0 4 10 12 23 17 12 5 17 9 10 9 -7 1 -10 8 -7 16 4 8 1 15 -5 15
-6 0 -8 7 -4 17 4 11 3 14 -5 9 -7 -4 -12 -2 -12 4 0 6 -4 9 -8 6 -5 -3 -20 1
-34 8 -23 12 -25 12 -21 -5z"/>
<path d="M3218 5548 c-19 -16 -30 -56 -17 -64 5 -3 9 8 9 24 0 20 7 32 23 40
12 6 17 11 11 11 -5 1 -17 -5 -26 -11z"/>
<path d="M3266 5518 c-9 -12 -16 -28 -16 -36 0 -7 -16 -26 -35 -43 -19 -17
-35 -38 -35 -48 0 -10 8 -4 20 16 10 17 28 37 39 43 12 6 21 19 21 28 0 10 7
28 16 40 8 12 13 22 10 22 -3 0 -12 -10 -20 -22z"/>
<path d="M5074 5509 c-8 -17 -11 -28 -5 -25 7 5 11 -2 11 -15 0 -19 -2 -20
-17 -8 -10 7 -8 2 5 -12 12 -14 22 -31 22 -37 0 -7 5 -12 11 -12 7 0 8 6 3 18
-5 9 -9 41 -9 70 0 28 -1 52 -2 52 -1 0 -10 -14 -19 -31z"/>
<path d="M4908 5487 c-7 -8 -20 -16 -28 -20 -12 -4 -11 -6 3 -6 9 -1 17 -8 17
-16 0 -24 41 -35 60 -17 21 22 19 45 -5 59 -26 16 -31 16 -47 0z"/>
<path d="M5142 5480 c0 -14 2 -19 5 -12 2 6 2 18 0 25 -3 6 -5 1 -5 -13z"/>
<path d="M5262 5441 c-11 -7 -11 -9 0 -14 9 -3 15 1 15 9 0 8 -1 14 -1 14 -1
0 -7 -4 -14 -9z"/>
<path d="M5426 5362 l-19 -27 24 22 c12 12 21 24 18 27 -2 2 -13 -8 -23 -22z"/>
<path d="M4119 5326 c10 -11 9 -15 -4 -19 -13 -4 -12 -5 1 -3 24 2 29 22 8 30
-14 5 -15 4 -5 -8z"/>
<path d="M6222 5298 c-7 -7 -11 -26 -11 -42 l1 -31 7 30 c3 17 16 35 31 42 22
11 23 13 5 13 -12 0 -26 -5 -33 -12z"/>
<path d="M6278 5285 c-26 -34 -22 -38 8 -8 l26 26 18 -28 c17 -26 17 -30 2
-54 l-16 -26 22 19 c11 10 28 16 36 13 15 -6 34 29 22 40 -3 4 -6 -1 -6 -10 0
-27 -17 -20 -39 18 -24 41 -49 44 -73 10z"/>
<path d="M3762 5284 c-6 -11 -11 -13 -16 -5 -4 6 -11 11 -17 11 -5 0 0 -9 12
-21 12 -12 18 -27 15 -36 -5 -12 -3 -13 6 -5 7 5 22 12 33 15 18 4 17 5 -3 6
-38 2 -24 35 18 42 l35 6 -37 2 c-25 1 -40 -4 -46 -15z"/>
<path d="M4978 5263 c7 -3 16 -2 19 1 4 3 -2 6 -13 5 -11 0 -14 -3 -6 -6z"/>
<path d="M6146 5209 c-14 -17 -26 -43 -26 -57 0 -19 -9 -32 -29 -44 -22 -12
-31 -13 -35 -5 -3 7 -3 0 0 -15 4 -18 0 -32 -15 -47 -12 -12 -16 -21 -11 -21
6 0 10 -7 10 -15 0 -8 -9 -15 -21 -15 -11 0 -17 -4 -14 -10 3 -5 1 -10 -5 -10
-15 0 -40 -62 -40 -101 0 -34 26 -85 48 -94 8 -3 2 9 -13 27 -23 28 -27 39
-23 80 5 50 33 92 68 103 11 3 17 17 18 36 1 41 26 78 65 94 18 8 26 14 20 15
-31 1 3 80 41 99 17 7 17 10 4 10 -9 1 -28 -13 -42 -30z"/>
<path d="M6226 5209 c-17 -15 -28 -30 -25 -33 4 -5 69 50 69 59 0 11 -16 2
-44 -26z"/>
<path d="M3708 5183 c6 -2 18 -2 25 0 6 3 1 5 -13 5 -14 0 -19 -2 -12 -5z"/>
<path d="M6288 5160 c-14 -16 -23 -32 -19 -36 3 -4 -2 -4 -13 0 -13 5 -17 2
-13 -9 4 -8 -1 -31 -9 -51 -8 -20 -10 -33 -5 -29 6 3 11 12 11 19 0 7 18 32
40 57 22 24 40 52 40 62 0 22 -1 22 -32 -13z"/>
<path d="M3670 5170 c-8 -5 -12 -12 -9 -15 4 -3 12 1 19 10 14 17 11 19 -10 5z"/>
<path d="M3862 5146 c-11 -24 -7 -36 10 -36 5 0 6 5 2 11 -3 6 0 15 7 20 10 6
11 11 3 19 -7 7 -14 3 -22 -14z"/>
<path d="M3743 5151 c-5 -3 -8 -12 -7 -18 1 -7 2 -20 3 -28 2 -27 36 -36 59
-16 19 16 20 20 7 38 -15 22 -47 34 -62 24z"/>
<path d="M6190 5146 c0 -8 -8 -17 -17 -19 -14 -4 -12 -5 5 -6 16 -1 22 5 22
19 0 11 -2 20 -5 20 -3 0 -5 -6 -5 -14z"/>
<path d="M6320 5096 c0 -7 71 -49 75 -44 2 2 -14 14 -36 26 -21 12 -39 21 -39
18z"/>
<path d="M6385 5030 c3 -5 8 -10 11 -10 2 0 4 5 4 10 0 6 -5 10 -11 10 -5 0
-7 -4 -4 -10z"/>
<path d="M6064 4958 l-19 -23 23 19 c12 11 22 21 22 23 0 8 -8 2 -26 -19z"/>
<path d="M6176 4915 c5 -11 3 -16 -2 -12 -5 3 -10 -3 -10 -13 0 -10 8 -23 18
-29 14 -9 22 -7 38 9 21 21 17 52 -6 43 -8 -3 -21 0 -29 7 -13 11 -14 10 -9
-5z m34 -30 c0 -8 -4 -15 -10 -15 -5 0 -10 7 -10 15 0 8 5 15 10 15 6 0 10 -7
10 -15z"/>
<path d="M6386 4914 c-4 -10 -14 -14 -26 -11 -11 3 -20 1 -20 -4 0 -5 8 -9 18
-9 10 0 23 -5 30 -12 9 -9 12 -5 12 20 0 35 -5 40 -14 16z"/>
<path d="M6332 4800 c0 -14 2 -19 5 -12 2 6 2 18 0 25 -3 6 -5 1 -5 -13z"/>
<path d="M6057 4800 c6 -7 9 -20 5 -29 -5 -14 -4 -14 11 -2 9 7 28 11 42 9 13
-3 22 -1 19 3 -3 5 -14 9 -25 9 -11 0 -30 5 -42 11 -18 9 -20 9 -10 -1z"/>
<path d="M5914 4770 c-26 -10 -25 -51 2 -61 23 -8 54 6 54 25 0 23 -33 44 -56
36z"/>
<path d="M6372 4729 c-31 -38 -70 -49 -89 -23 -13 18 -14 18 -12 -1 1 -11 1
-27 1 -35 -3 -23 -56 -51 -102 -53 -47 -2 -53 -13 -10 -19 17 -3 30 -1 30 4 0
4 8 8 17 8 22 0 83 42 83 58 0 6 11 12 24 12 22 0 86 53 86 72 0 12 -3 10 -28
-23z"/>
<path d="M6046 4722 c-2 -4 -1 -14 5 -22 7 -12 9 -10 9 8 0 23 -5 28 -14 14z"/>
<path d="M5600 4700 c-13 -8 -12 -10 3 -10 9 0 17 5 17 10 0 12 -1 12 -20 0z"/>
<path d="M5666 4695 c16 -7 35 -25 41 -38 10 -21 9 -28 -8 -43 -10 -9 -19 -22
-19 -28 0 -6 7 0 16 12 8 12 24 22 35 22 17 0 18 2 4 18 -47 55 -66 72 -82 71
-12 0 -8 -5 13 -14z"/>
<path d="M5576 4663 c-6 -14 -5 -15 5 -6 7 7 10 15 7 18 -3 3 -9 -2 -12 -12z"/>
<path d="M5623 4645 c-3 -9 -3 -18 -1 -21 3 -3 8 4 11 16 6 23 -1 27 -10 5z"/>
<path d="M6070 4656 c0 -2 8 -10 18 -17 15 -13 16 -12 3 4 -13 16 -21 21 -21
13z"/>
<path d="M5803 4635 c0 -8 4 -12 9 -9 5 3 6 10 3 15 -9 13 -12 11 -12 -6z"/>
<path d="M5537 4622 c-38 -25 -56 -52 -56 -82 0 -20 2 -18 14 13 16 47 47 73
78 68 5 -1 6 3 2 9 -8 13 -5 13 -38 -8z"/>
<path d="M5580 4585 c-13 -14 -22 -27 -19 -29 2 -2 14 10 27 25 29 36 24 38
-8 4z"/>
<path d="M5670 4561 c0 -7 -5 -9 -12 -5 -7 4 -10 4 -6 0 4 -5 -5 -19 -19 -32
-14 -13 -23 -27 -20 -31 4 -3 2 -12 -4 -19 -6 -8 -9 -21 -5 -29 3 -8 2 -15 -2
-16 -4 0 -17 -2 -29 -3 -13 -2 -31 -10 -41 -19 -28 -26 -50 -21 -57 13 -5 21
-2 39 10 56 9 14 15 28 12 30 -3 3 -14 -10 -26 -29 -17 -29 -19 -39 -10 -65
11 -32 31 -42 88 -42 l34 0 -27 -27 c-35 -35 -40 -60 -22 -105 18 -42 31 -49
66 -36 47 17 77 70 60 108 -2 3 -3 17 -4 32 -2 22 3 27 26 30 23 4 28 1 28
-17 0 -56 63 -85 97 -45 10 11 25 20 35 20 23 0 32 16 13 24 -18 7 -20 46 -2
47 6 1 -1 4 -18 8 -35 7 -47 47 -20 67 9 7 12 15 6 18 -5 4 -13 1 -18 -7 -9
-15 -102 -77 -115 -77 -5 0 -7 -4 -3 -9 3 -5 -4 -12 -15 -16 -26 -8 -130 -8
-138 0 -11 11 22 25 61 25 33 0 38 3 32 19 -8 26 18 85 46 105 18 12 21 18 11
28 -9 9 -12 9 -12 -1z m104 -147 c9 -8 17 -25 17 -37 1 -12 3 -32 4 -44 3 -31
-33 -42 -52 -17 -21 29 -27 63 -14 90 12 28 24 30 45 8z m-168 -133 c9 -12 7
-21 -9 -43 -11 -15 -26 -28 -33 -28 -13 0 -24 31 -24 71 0 23 3 26 28 21 15
-3 32 -12 38 -21z"/>
<path d="M5551 4524 c0 -11 3 -14 6 -6 3 7 2 16 -1 19 -3 4 -6 -2 -5 -13z"/>
<path d="M1660 4512 c-14 -2 -33 -11 -42 -19 -14 -13 -20 -13 -33 -3 -8 7 -15
8 -15 2 0 -18 31 -22 53 -7 34 24 84 19 112 -11 14 -15 25 -22 25 -16 0 15
-37 49 -58 54 -10 2 -28 2 -42 0z"/>
<path d="M5546 4483 c-6 -14 -5 -15 5 -6 7 7 10 15 7 18 -3 3 -9 -2 -12 -12z"/>
<path d="M1515 4480 c-3 -6 1 -7 9 -4 18 7 21 14 7 14 -6 0 -13 -4 -16 -10z"/>
<path d="M1477 4469 c7 -7 15 -10 18 -7 3 3 -2 9 -12 12 -14 6 -15 5 -6 -5z"/>
<path d="M5954 4464 c-4 -10 -8 -22 -10 -25 -2 -3 7 -5 19 -5 19 1 22 -5 25
-43 3 -43 3 -43 -27 -39 -16 2 -28 1 -25 -4 3 -4 12 -8 20 -8 22 0 17 -16 -13
-40 -23 -18 -38 -21 -86 -18 -37 3 -54 1 -48 -5 6 -6 34 -12 63 -14 50 -4 55
-2 91 32 38 35 38 37 35 101 -1 36 -7 68 -12 71 -5 4 -6 0 -2 -8 4 -8 1 -5 -8
5 -15 19 -16 19 -22 0z"/>
<path d="M5520 4445 c-7 -9 -11 -17 -9 -20 3 -2 10 5 17 15 14 24 10 26 -8 5z"/>
<path d="M1482 4425 c-1 -13 2 -26 7 -30 5 -3 7 4 4 15 -3 12 0 20 6 20 7 0 9
5 6 10 -11 17 -21 11 -23 -15z"/>
<path d="M1553 4437 c32 -13 42 -13 75 0 30 11 31 13 7 8 -16 -4 -37 -6 -45
-6 -8 0 -28 2 -45 6 -24 5 -23 3 8 -8z"/>
<path d="M1690 4426 c0 -3 9 -10 20 -16 11 -6 20 -8 20 -6 0 3 -9 10 -20 16
-11 6 -20 8 -20 6z"/>
<path d="M29 4403 c-13 -15 -12 -15 6 -6 11 6 27 13 35 16 10 4 8 6 -6 6 -12
1 -28 -6 -35 -16z"/>
<path d="M110 4395 c9 -11 16 -13 24 -5 5 5 28 10 49 10 30 0 45 -7 65 -28 27
-29 72 -48 72 -31 0 5 -7 9 -16 9 -8 0 -29 14 -46 30 -23 24 -38 30 -72 30
-23 0 -47 -5 -54 -12 -9 -9 -12 -9 -12 0 0 7 -5 12 -11 12 -8 0 -7 -5 1 -15z"/>
<path d="M5883 4393 c20 -5 22 -14 6 -30 -9 -9 -6 -10 10 -6 14 4 20 11 17 20
-3 8 -6 17 -6 19 0 2 -10 3 -22 3 -17 -1 -19 -2 -5 -6z"/>
<path d="M2 4320 c1 -39 6 -56 12 -50 6 6 21 10 36 10 18 0 21 3 11 9 -8 5
-20 7 -28 4 -7 -3 -13 1 -13 8 0 8 -3 24 -6 36 -5 18 -1 25 17 32 24 10 24 10
-4 10 -27 1 -28 1 -25 -59z"/>
<path d="M1500 4368 c0 -25 12 -28 40 -12 l25 15 -24 -7 c-15 -4 -27 -1 -32 7
-7 11 -9 10 -9 -3z"/>
<path d="M76 4355 c10 -8 26 -14 34 -15 8 0 2 7 -14 15 -36 19 -45 19 -20 0z"/>
<path d="M141 4350 c-9 -5 -4 -7 13 -7 15 0 37 -10 50 -22 28 -26 43 -28 19
-2 -24 25 -66 41 -82 31z"/>
<path d="M753 4334 c-17 -12 -26 -13 -43 -4 -16 9 -25 9 -33 1 -8 -8 -4 -11
15 -11 15 0 30 -5 33 -11 5 -7 12 -6 23 4 10 8 31 19 47 25 28 10 29 10 5 11
-14 0 -35 -7 -47 -15z"/>
<path d="M830 4340 c0 -5 7 -10 15 -10 7 0 18 -6 22 -13 7 -11 12 -11 33 1
l25 14 -24 -6 c-14 -3 -30 1 -38 10 -17 16 -33 18 -33 4z"/>
<path d="M330 4333 c0 -7 4 -14 9 -17 4 -3 8 -18 7 -33 -1 -25 -4 -28 -37 -28
-22 0 -45 -8 -58 -19 -21 -19 -21 -19 -21 3 0 12 -4 19 -10 16 -5 -3 -10 -1
-10 5 0 6 -4 9 -9 6 -5 -4 -12 0 -14 6 -4 10 -8 9 -16 -2 -9 -13 -11 -12 -11
5 0 12 -3 16 -8 9 -4 -6 -22 -10 -40 -8 -28 2 -31 0 -21 -12 6 -8 29 -14 51
-14 30 0 46 -7 68 -29 l29 -28 22 23 c22 24 59 33 59 15 0 -11 -89 -91 -101
-91 -4 0 -11 5 -14 10 -4 6 -17 3 -33 -9 -33 -23 -110 -21 -148 3 -22 15 -24
15 -24 1 0 -9 20 -24 48 -36 140 -58 164 -80 48 -44 -41 13 -80 26 -85 30 -7
4 -11 -4 -11 -18 0 -28 22 -39 109 -57 52 -10 70 -5 71 21 0 3 15 11 33 16
l32 10 -30 0 c-17 0 -41 6 -54 12 -22 12 -20 14 40 42 40 19 83 51 120 89 32
33 55 60 51 60 -4 0 -8 10 -9 22 -2 22 -33 61 -33 41z"/>
<path d="M978 4319 c23 -10 42 -23 42 -29 0 -7 7 -5 16 4 20 21 58 30 90 22
17 -5 23 -3 19 4 -9 14 -65 12 -94 -4 -21 -12 -27 -11 -43 4 -11 10 -31 17
-46 17 -24 0 -22 -2 16 -18z"/>
<path d="M638 4303 c-20 -23 -32 -73 -18 -73 6 0 8 -4 5 -10 -3 -5 -1 -10 4
-10 6 0 11 -9 11 -21 0 -11 -4 -18 -10 -14 -21 13 -101 7 -119 -9 -38 -34 -30
-103 10 -91 11 4 26 2 33 -4 10 -9 15 -8 20 4 3 8 12 15 20 15 9 0 13 9 12 25
-1 30 -7 31 -36 7 -25 -21 -70 -18 -70 4 0 27 45 45 98 39 39 -4 51 -2 56 10
6 16 61 21 70 6 3 -5 36 -6 72 -3 47 3 68 1 74 -8 4 -7 10 -8 12 -4 3 5 -5 20
-19 34 -18 19 -22 21 -17 6 6 -16 5 -17 -16 -6 -18 10 -24 9 -30 0 -6 -9 -9
-8 -13 6 -3 14 -5 15 -6 3 -1 -13 -10 -15 -48 -11 -27 2 -54 9 -62 15 -12 9
-13 9 -7 0 4 -7 3 -13 -3 -13 -15 0 -33 39 -27 57 5 12 17 15 54 11 26 -3 58
-2 72 1 16 5 0 8 -43 8 -76 2 -86 5 -67 28 17 21 7 19 -12 -2z"/>
<path d="M1160 4307 c0 -3 12 -12 26 -22 15 -9 23 -12 20 -6 -7 11 -46 35 -46
28z"/>
<path d="M265 4290 c19 -8 73 -14 64 -6 -2 2 -22 6 -44 9 -28 5 -34 4 -20 -3z"/>
<path d="M1293 4278 c-28 -14 -35 -42 -14 -60 19 -16 60 -5 62 16 0 6 2 19 4
28 3 15 0 16 -16 8 -15 -8 -17 -7 -13 5 7 17 7 17 -23 3z"/>
<path d="M815 4266 c17 -8 32 -12 34 -10 7 6 -2 11 -34 17 l-30 6 30 -13z"/>
<path d="M1048 4263 c7 -3 16 -2 19 1 4 3 -2 6 -13 5 -11 0 -14 -3 -6 -6z"/>
<path d="M1436 4253 c-6 -14 -5 -15 5 -6 7 7 10 15 7 18 -3 3 -9 -2 -12 -12z"/>
<path d="M1120 4250 c8 -5 20 -10 25 -10 6 0 3 5 -5 10 -8 5 -19 10 -25 10 -5
0 -3 -5 5 -10z"/>
<path d="M1219 4210 c-3 -24 -11 -38 -26 -45 -12 -5 -26 -20 -32 -33 -16 -35
-13 -40 7 -11 19 29 49 30 90 3 22 -14 22 -14 10 6 -7 11 -23 20 -35 20 -25 0
-29 10 -12 27 6 6 9 23 7 39 -4 28 -4 28 -9 -6z"/>
<path d="M1030 4151 c0 -7 -3 -10 -8 -7 -4 2 -12 -6 -19 -20 -12 -25 -1 -42
25 -38 6 1 19 2 27 3 12 1 13 5 6 19 -7 12 -7 23 0 30 5 7 6 10 3 7 -4 -3 -13
0 -21 6 -10 9 -13 8 -13 0z m17 -31 c1 -15 -4 -19 -23 -18 l-26 2 22 18 c27
22 25 22 27 -2z"/>
<path d="M647 4119 c52 -57 22 -139 -51 -139 -50 0 -73 14 -81 50 -4 16 -11
30 -16 30 -6 0 -7 -4 -4 -10 15 -24 -9 -27 -42 -5 -34 24 -53 31 -53 20 0 -2
16 -12 36 -21 60 -29 83 -108 35 -121 -10 -2 -24 -17 -30 -31 l-12 -27 19 24
c21 26 50 23 87 -8 18 -15 34 -19 50 -11 3 1 8 3 13 5 4 1 14 4 22 8 8 3 40
10 71 15 52 8 58 7 84 -16 27 -23 53 -26 105 -11 15 4 40 24 40 32 0 3 -19 3
-42 0 -32 -5 -44 -2 -54 12 -11 14 -10 21 3 41 8 13 19 24 23 24 4 0 29 -21
56 -46 55 -53 79 -64 135 -64 43 0 99 24 99 41 0 6 7 8 16 5 22 -8 94 25 123
58 40 43 17 40 -27 -4 -34 -34 -46 -40 -76 -38 -24 1 -36 7 -37 18 0 8 -5 0
-10 -18 -7 -22 -19 -36 -37 -43 -35 -14 -105 -6 -138 16 -24 15 -26 22 -21 61
4 38 3 42 -8 27 -20 -27 -83 -7 -112 36 -13 19 -23 28 -23 20 0 -10 -2 -11 -8
-2 -5 8 -13 9 -22 3 -34 -22 -61 -11 -77 28 -8 21 -24 44 -36 51 l-22 14 22
-24z m78 -99 c13 -6 15 -9 5 -9 -8 -1 -25 -4 -38 -7 -18 -5 -21 -3 -16 10 7
18 19 19 49 6z m-215 -10 c0 -5 -2 -10 -4 -10 -3 0 -8 5 -11 10 -3 6 -1 10 4
10 6 0 11 -4 11 -10z m306 -7 c-10 -11 -36 -12 -36 -2 0 5 10 9 22 9 12 0 18
-3 14 -7z m-88 -25 c-3 -8 -24 -14 -49 -15 l-44 -2 40 14 c51 17 58 18 53 3z
m-168 -99 c0 -6 -4 -7 -10 -4 -5 3 -10 11 -10 16 0 6 5 7 10 4 6 -3 10 -11 10
-16z"/>
<path d="M781 4104 c0 -11 3 -14 6 -6 3 7 2 16 -1 19 -3 4 -6 -2 -5 -13z"/>
<path d="M315 4070 c-3 -6 -18 -7 -33 -4 -23 5 -22 3 8 -13 32 -16 38 -17 66
-3 19 9 26 16 17 18 -9 2 -20 -1 -26 -7 -6 -6 -17 -11 -25 -11 -12 0 -12 3 -2
15 7 8 10 15 7 15 -3 0 -9 -5 -12 -10z"/>
<path d="M604 4052 c-9 -14 -7 -17 12 -17 18 0 20 3 11 15 -6 8 -12 16 -12 17
0 1 -6 -6 -11 -15z"/>
<path d="M870 4046 c0 -2 8 -10 18 -17 15 -13 16 -12 3 4 -13 16 -21 21 -21
13z"/>
<path d="M968 4013 c7 -3 16 -2 19 1 4 3 -2 6 -13 5 -11 0 -14 -3 -6 -6z"/>
<path d="M134 3945 c-24 -24 -29 -35 -24 -55 l7 -25 4 29 c5 38 32 55 59 39
27 -17 31 -2 6 22 l-21 20 -31 -30z"/>
<path d="M313 3904 c-32 -35 -8 -78 27 -50 16 12 23 46 10 46 -5 0 -10 7 -12
15 -2 10 -9 8 -25 -11z"/>
<path d="M110 3847 c0 -31 42 -87 65 -87 6 1 2 5 -8 11 -11 6 -27 30 -38 53
-10 22 -19 33 -19 23z"/>
<path d="M551 3813 c-1 -33 -7 -46 -32 -67 -33 -28 -93 -36 -102 -13 -3 6 -6
3 -6 -8 -1 -33 -21 -45 -76 -45 -72 0 -99 21 -92 72 4 31 3 36 -6 25 -7 -9
-21 -17 -32 -20 -19 -4 -19 -5 1 -6 15 -1 23 -9 27 -28 3 -17 17 -35 34 -44
34 -19 105 -16 136 6 12 8 32 15 44 15 34 0 102 46 109 74 3 13 4 37 1 52 -3
22 -4 19 -6 -13z"/>
<path d="M1355 2811 c-3 -5 -1 -12 5 -16 5 -3 10 1 10 9 0 18 -6 21 -15 7z"/>
<path d="M1317 2773 c-4 -3 -7 -15 -7 -25 0 -10 -7 -18 -15 -18 -8 0 -15 4
-15 9 0 5 -11 4 -24 -2 -20 -9 -21 -13 -10 -25 8 -7 14 -21 14 -30 1 -27 23
-47 57 -50 39 -4 52 15 24 34 -19 14 -20 17 -6 38 12 18 13 30 6 50 -11 28
-14 30 -24 19z m-17 -102 c0 -6 -4 -13 -10 -16 -5 -3 -10 1 -10 9 0 9 5 16 10
16 6 0 10 -4 10 -9z"/>
<path d="M1360 2745 c0 -6 6 -17 13 -24 10 -11 10 -14 0 -18 -21 -8 -14 -25 8
-21 12 2 28 13 36 25 14 21 14 22 -11 17 -17 -3 -28 2 -35 13 -6 10 -11 13
-11 8z"/>
<path d="M1183 2687 c-17 -7 -35 -15 -39 -20 -9 -9 35 -57 53 -57 7 0 13 -9
13 -20 0 -11 5 -20 10 -20 14 0 13 57 -1 66 -6 3 -9 19 -5 35 3 16 4 29 3 28
-1 0 -16 -6 -34 -12z"/>
<path d="M1120 2640 c0 -5 -6 -10 -13 -10 -7 0 -35 -16 -62 -35 -28 -19 -62
-40 -77 -46 -16 -6 -28 -15 -28 -19 0 -4 -13 -16 -29 -27 -16 -10 -54 -40 -84
-68 -30 -27 -81 -69 -113 -92 -33 -24 -86 -67 -119 -98 -33 -30 -64 -55 -68
-55 -5 0 -24 -12 -43 -27 -24 -18 -34 -32 -31 -45 6 -20 -8 -25 -16 -5 -4 8
-6 7 -6 -3 -1 -9 3 -20 9 -26 5 -5 6 -15 0 -24 -7 -11 -10 -8 -15 12 -4 15
-13 29 -20 32 -7 2 -55 -21 -107 -52 -52 -31 -140 -79 -196 -107 l-102 -49 0
-948 0 -948 3200 0 3200 0 0 848 0 847 -67 30 c-37 17 -115 53 -173 81 -58 29
-121 55 -138 59 -17 3 -34 11 -37 16 -4 5 -11 9 -16 9 -6 0 -8 -4 -4 -9 3 -5
1 -12 -4 -15 -5 -3 -25 10 -46 31 -54 54 -96 73 -163 73 -32 0 -63 -5 -68 -10
-21 -21 -172 88 -174 125 0 6 -9 21 -20 35 l-20 25 4 -55 c3 -30 10 -77 16
-103 10 -38 9 -51 -2 -65 -12 -16 -11 -16 6 -2 18 14 19 13 14 -8 -4 -12 -2
-20 3 -16 5 3 9 -5 9 -17 0 -22 0 -22 -21 -3 -12 10 -27 33 -35 49 -7 17 -23
42 -37 57 -14 15 -20 29 -14 31 6 2 7 9 3 16 -7 11 -10 11 -17 0 -4 -7 -12
-10 -16 -5 -4 5 -2 11 5 13 6 3 9 9 6 15 -4 5 5 2 20 -7 29 -20 35 -6 9 21
-16 16 -16 17 -1 12 10 -4 19 -1 22 8 8 21 8 21 -15 27 -14 4 -20 13 -18 29 4
44 -30 98 -62 98 -10 0 -23 10 -30 22 -10 18 -9 20 4 15 13 -5 15 1 13 31 -2
24 -9 38 -20 40 -18 4 -19 52 -1 64 6 5 4 13 -7 24 -17 17 -39 12 -37 -9 0 -9
2 -8 6 1 5 13 23 7 23 -9 0 -17 -45 -5 -45 11 -1 25 -21 54 -29 41 -4 -6 -16
-11 -27 -11 -10 0 -19 -4 -19 -9 0 -9 -82 -7 -98 3 -13 8 -42 -3 -42 -16 0 -5
-5 -6 -11 -3 -6 5 -4 12 8 22 10 8 12 12 6 8 -7 -3 -25 1 -40 9 -45 25 -161
76 -173 76 -17 0 -11 -18 8 -23 16 -4 15 -5 -1 -6 -16 -1 -17 -6 -12 -33 4
-17 14 -39 22 -47 10 -10 13 -26 9 -50 -7 -51 13 -75 54 -66 29 6 31 5 25 -14
-4 -15 -2 -21 8 -21 8 0 18 -7 21 -16 9 -22 8 -26 -5 -18 -8 4 -9 -1 -4 -15 6
-20 5 -21 -14 -9 -12 7 -21 20 -21 30 0 26 -11 48 -21 42 -5 -3 -4 -14 2 -25
6 -11 8 -28 5 -36 -4 -9 1 -24 10 -34 14 -15 14 -21 4 -34 -7 -8 -9 -15 -4
-15 5 0 1 -5 -9 -11 -26 -15 -45 4 -44 44 1 34 -29 107 -44 107 -5 0 -6 -7 -3
-15 4 -8 1 -15 -5 -15 -6 0 -11 -5 -11 -11 0 -5 4 -8 9 -5 5 3 14 -1 21 -9 10
-12 10 -21 2 -38 -15 -28 -11 -77 6 -77 7 0 15 -7 19 -16 4 -10 13 -14 29 -10
23 6 42 -8 25 -19 -6 -3 -8 -12 -5 -20 4 -8 -1 -18 -10 -21 -9 -3 -16 -15 -16
-25 0 -29 -18 -23 -22 8 -4 39 -26 40 -40 3 -6 -19 -13 -27 -18 -20 -5 7 -11
6 -21 -6 -9 -12 -10 -15 -1 -10 7 4 12 1 12 -8 0 -9 -5 -15 -12 -13 -6 1 -14
-8 -17 -21 -5 -20 -11 -12 -33 45 -23 57 -27 63 -28 38 -1 -16 -5 -39 -10 -50
-8 -18 -9 -18 -10 5 -2 17 -4 20 -7 8 -3 -14 -9 -16 -23 -8 -13 7 -21 7 -25 0
-7 -11 -45 5 -57 24 -4 6 -8 -2 -9 -19 -1 -17 -3 -22 -6 -12 -2 9 -9 17 -14
17 -9 0 -13 -20 -9 -54 1 -11 -3 -15 -9 -12 -6 4 -11 14 -11 23 0 10 -6 14
-20 10 -25 -6 -26 11 -2 29 15 12 15 13 1 14 -24 0 -42 -26 -34 -50 9 -29 -10
-25 -23 5 -7 14 -18 25 -24 23 -7 -1 -23 2 -36 6 -15 5 -29 3 -39 -6 -15 -11
-16 -11 -10 5 3 9 2 17 -3 17 -6 0 -10 -6 -10 -12 0 -9 -4 -8 -10 2 -8 12 -10
12 -10 -5 0 -17 -2 -17 -10 -5 -5 8 -7 23 -4 33 3 11 0 17 -10 17 -9 0 -16 -7
-16 -15 0 -8 -4 -15 -10 -15 -5 0 -10 -9 -10 -21 0 -14 -5 -19 -15 -16 -17 7
-30 -9 -15 -18 17 -11 11 -23 -9 -18 -11 3 -22 16 -25 29 -4 15 -11 21 -21 18
-8 -4 -17 1 -21 10 -11 28 -20 17 -18 -20 3 -31 1 -35 -19 -32 -16 2 -23 11
-25 31 -3 25 -22 40 -22 16 0 -5 -4 -8 -9 -5 -11 7 -21 -17 -21 -49 0 -13 -5
-25 -11 -27 -6 -2 -15 -22 -20 -43 l-8 -40 4 45 c2 24 9 46 14 48 14 5 14 32
1 32 -5 0 -11 10 -12 23 0 12 -4 2 -8 -23 -5 -35 -7 -22 -8 58 -1 60 -6 102
-12 102 -5 0 -10 -6 -10 -12 -1 -26 -68 -179 -73 -166 -4 9 -6 8 -6 -4 -1 -9
-6 -20 -13 -24 -8 -5 -9 -2 -4 12 4 10 4 15 0 11 -4 -4 -13 -2 -21 5 -11 9
-17 8 -29 -3 -13 -13 -13 -20 1 -59 20 -57 35 -76 46 -58 7 10 9 9 9 -4 0 -10
-7 -18 -16 -18 -16 0 -54 74 -58 115 -1 13 -10 34 -19 47 l-16 23 -25 -27
c-16 -18 -26 -23 -29 -15 -3 7 -6 1 -7 -13 0 -22 -2 -23 -11 -7 -13 21 -23 22
-44 0 -13 -12 -19 -13 -24 -4 -6 9 -16 8 -42 -6 -19 -10 -37 -22 -40 -26 -3
-5 -9 1 -12 14 -5 19 -10 21 -44 16 -21 -4 -39 -11 -41 -17 -2 -6 -10 -6 -21
-1 -10 6 -43 9 -74 8 -43 -2 -56 1 -52 11 3 9 0 10 -15 2 -23 -12 -33 -13 -26
-1 3 5 -1 12 -10 15 -8 3 -12 2 -9 -4 3 -5 -1 -7 -9 -4 -8 3 -12 12 -9 20 6
16 -12 19 -22 4 -9 -14 -35 -12 -68 5 -15 8 -34 12 -41 9 -7 -3 -21 2 -30 12
-9 9 -20 14 -23 10 -13 -12 -143 203 -143 236 0 9 -4 20 -10 23 -6 3 -10 -4
-10 -17 0 -12 -18 -61 -39 -108 -22 -47 -43 -94 -47 -105 -5 -16 -9 -11 -22
28 -9 26 -18 47 -22 47 -12 0 -40 -71 -40 -100 0 -30 -17 -42 -24 -17 -22 80
-46 202 -46 231 0 20 -4 36 -10 36 -16 0 -87 -117 -162 -272 -40 -81 -77 -148
-82 -148 -4 0 -6 6 -3 13 6 16 -14 103 -38 167 -19 52 -37 127 -37 153 1 37
-17 13 -68 -93 -52 -105 -55 -109 -72 -93 -18 16 -19 16 -25 -5 -3 -12 -9 -22
-14 -22 -5 0 -9 -8 -10 -17 -1 -22 -21 65 -21 90 1 38 -23 8 -41 -52 -14 -43
-23 -58 -29 -49 -6 8 -7 1 -3 -19 4 -21 0 -43 -11 -65 l-18 -33 -7 25 c-4 14
-7 42 -8 63 -1 21 -6 48 -12 59 -7 14 -12 80 -11 179 l0 157 -29 -3 c-16 -2
-35 -8 -43 -12 -24 -14 -166 -146 -166 -154 0 -7 -43 -76 -56 -88 -3 -3 2 11
11 31 17 42 10 51 -34 42 -33 -7 -40 -24 -17 -43 17 -14 18 -20 19 -124 1 -82
-16 -124 -27 -69 -4 16 -6 33 -5 38 2 5 -1 34 -6 64 -4 30 -8 97 -7 148 1 50
-2 92 -7 92 -12 0 -137 -123 -151 -150 -13 -23 -14 -24 -21 -5 -4 11 -8 34 -8
50 -1 19 -9 36 -21 45 -11 8 -20 20 -20 28 0 7 -7 24 -16 37 l-16 25 -28 -20
c-16 -11 -32 -29 -35 -39 -3 -11 -12 -22 -20 -25 -10 -3 -12 0 -8 11 4 9 2 14
-3 11 -5 -3 -9 12 -9 33 -1 21 0 39 1 39 2 0 10 -7 19 -16 15 -15 17 -15 34 0
18 17 18 56 0 56 -5 0 -9 6 -9 14 0 8 -7 16 -15 20 -8 3 -15 15 -15 26 0 11
-4 20 -8 20 -9 0 -35 47 -36 64 -2 16 -23 17 -36 1 -10 -12 -10 -15 4 -15 10
0 16 -8 16 -21 0 -21 -1 -21 -25 5 -28 30 -33 48 -11 40 17 -7 30 12 19 29 -4
6 -6 23 -4 36 1 13 -3 27 -9 31 -13 8 -16 76 -5 110 4 11 4 20 1 20 -3 0 -6
-4 -6 -10z m-80 -105 c0 -8 5 -15 10 -15 6 0 10 -8 10 -19 0 -10 6 -19 13 -18
46 1 48 -2 16 -38 -18 -19 -35 -35 -39 -35 -12 0 -22 64 -10 68 5 2 10 8 10
13 0 4 -7 6 -15 3 -9 -4 -15 0 -15 10 0 9 -4 16 -9 16 -5 0 -11 7 -15 15 -4
11 1 15 19 15 16 0 25 -6 25 -15z m3889 -41 c14 -12 -19 -1 -35 12 -18 14 -18
14 6 3 14 -6 27 -13 29 -15z m-69 6 c0 -5 -7 -10 -16 -10 -8 0 -12 5 -9 10 3
6 10 10 16 10 5 0 9 -4 9 -10z m160 -84 c0 -11 -19 -15 -25 -6 -3 5 1 10 9 10
9 0 16 -2 16 -4z m30 -6 c0 -5 -2 -10 -4 -10 -3 0 -8 5 -11 10 -3 6 -1 10 4
10 6 0 11 -4 11 -10z m-3930 -52 c0 -16 -3 -19 -11 -11 -6 6 -8 16 -5 22 11
17 16 13 16 -11z m4160 12 c0 -5 -4 -10 -10 -10 -5 0 -10 5 -10 10 0 6 5 10
10 10 6 0 10 -4 10 -10z m-283 -46 c-3 -3 -12 -4 -19 -1 -8 3 -5 6 6 6 11 1
17 -2 13 -5z m-3767 -74 c0 -5 -9 -10 -19 -10 -11 0 -22 -6 -24 -12 -4 -10 -6
-10 -6 0 -1 10 22 25 47 31 1 1 2 -3 2 -9z m4139 -69 c-15 -5 -22 6 -14 19 6
9 10 9 16 -1 5 -8 4 -15 -2 -18z m-409 -46 c0 -8 -6 -15 -14 -15 -17 0 -28 14
-19 24 12 12 33 6 33 -9z m-3600 -29 c0 -8 -4 -18 -10 -21 -5 -3 -10 3 -10 14
0 12 5 21 10 21 6 0 10 -6 10 -14z m-33 -88 c-2 -13 -4 -3 -4 22 0 25 2 35 4
23 2 -13 2 -33 0 -45z m303 43 c0 -6 -4 -13 -10 -16 -5 -3 -10 1 -10 9 0 9 5
16 10 16 6 0 10 -4 10 -9z m-281 -116 c-1 -30 -6 -55 -12 -55 -5 0 -7 9 -4 20
3 11 1 20 -4 20 -5 0 -9 15 -8 33 0 27 2 29 9 12 8 -19 9 -19 9 3 1 12 3 22 6
22 3 0 5 -25 4 -55z m3031 15 c0 -5 -13 -10 -30 -10 -16 0 -30 5 -30 10 0 6
14 10 30 10 17 0 30 -4 30 -10z m-330 -10 c0 -5 -4 -10 -10 -10 -5 0 -10 5
-10 10 0 6 5 10 10 10 6 0 10 -4 10 -10z m520 2 c0 -13 -12 -22 -22 -16 -10 6
-1 24 13 24 5 0 9 -4 9 -8z m60 4 c0 -3 -4 -8 -10 -11 -5 -3 -10 -1 -10 4 0 6
5 11 10 11 6 0 10 -2 10 -4z m150 -44 c-4 -2 -6 -13 -3 -25 3 -17 2 -19 -5 -7
-6 8 -8 28 -5 45 5 25 7 27 13 10 4 -11 4 -21 0 -23z m-4268 -22 c4 0 8 -7 8
-15 0 -16 -16 -21 -23 -7 -2 4 -7 21 -10 37 -6 27 -5 28 5 8 6 -13 15 -23 20
-23z m3295 8 c-3 -8 -6 -5 -6 6 -1 11 2 17 5 13 3 -3 4 -12 1 -19z m414 -5
c-12 -20 -14 -14 -5 12 4 9 9 14 11 11 3 -2 0 -13 -6 -23z m-3450 -55 c-7 -7
-11 -8 -10 -3 2 6 -3 21 -10 35 l-13 25 23 -22 c19 -19 21 -25 10 -35z m2622
38 c4 -10 1 -13 -9 -9 -15 6 -19 23 -5 23 5 0 11 -7 14 -14z m1447 5 c0 -6 -4
-13 -10 -16 -5 -3 -10 1 -10 9 0 9 5 16 10 16 6 0 10 -4 10 -9z m341 -29 c-7
-13 -6 -23 1 -30 7 -7 9 -14 6 -18 -4 -3 -12 4 -18 16 -9 16 -9 25 1 36 16 20
22 18 10 -4z m-365 -12 c5 1 10 -4 12 -12 2 -9 0 -8 -7 2 -8 11 -11 12 -11 2
0 -7 -4 -10 -10 -7 -5 3 -10 14 -10 23 0 13 2 14 9 4 4 -8 12 -13 17 -12z
m-966 4 c0 -8 -19 -13 -24 -6 -3 5 1 9 9 9 8 0 15 -2 15 -3z m508 -40 c-4 -3
-12 5 -18 18 -12 22 -12 22 6 6 10 -10 15 -20 12 -24z m312 -9 c0 -25 -4 -45
-10 -45 -5 0 -7 7 -4 15 4 8 -1 17 -9 21 -9 3 -18 12 -21 19 -3 9 0 12 9 8 8
-3 18 2 21 11 10 26 14 18 14 -29z m180 23 c0 -19 -18 -44 -25 -36 -4 3 0 15
7 27 15 24 18 26 18 9z m-432 -23 c-3 -3 -9 2 -12 12 -6 14 -5 15 5 6 7 -7 10
-15 7 -18z m120 -20 c-1 -45 -11 -58 -22 -30 -3 8 -1 15 4 15 6 0 10 14 10 30
0 17 2 30 5 30 3 0 4 -20 3 -45z m-551 -2 c-3 -10 -5 -4 -5 12 0 17 2 24 5 18
2 -7 2 -21 0 -30z m170 5 c-3 -7 -5 -2 -5 12 0 14 2 19 5 13 2 -7 2 -19 0 -25z
m360 0 c-3 -7 -5 -2 -5 12 0 14 2 19 5 13 2 -7 2 -19 0 -25z m-487 2 c0 -11
-4 -20 -9 -20 -5 0 -7 9 -4 20 3 11 7 20 9 20 2 0 4 -9 4 -20z m145 -29 c-4
-17 -11 -31 -17 -31 -6 0 -7 8 -3 18 4 9 10 25 12 35 9 29 15 11 8 -22z m265
-11 c-17 -32 -22 -19 -7 19 7 20 13 27 15 18 2 -9 -2 -26 -8 -37z m-394 3 c-8
-47 -36 -113 -48 -113 -4 0 -8 18 -8 39 0 22 -3 48 -7 58 -3 10 -3 15 2 11 4
-4 15 -2 23 5 13 10 15 9 9 -5 -3 -10 -2 -20 3 -23 5 -3 12 10 16 30 3 19 8
35 11 35 3 0 2 -17 -1 -37z m365 -7 c-7 -18 -7 -26 0 -26 6 0 7 -5 3 -12 -9
-14 -34 18 -33 41 0 12 3 10 9 -4 8 -20 9 -20 9 1 1 11 4 24 8 27 12 13 14 0
4 -27z m435 7 c-10 -10 -19 5 -10 18 6 11 8 11 12 0 2 -7 1 -15 -2 -18z"/>
<path d="M1040 2460 c0 -5 5 -10 11 -10 5 0 7 5 4 10 -3 6 -8 10 -11 10 -2 0
-4 -4 -4 -10z"/>
<path d="M1157 2545 c-7 -18 6 -27 27 -19 13 5 14 9 5 20 -15 18 -25 18 -32
-1z"/>
<path d="M4870 2250 c0 -5 5 -10 11 -10 5 0 7 5 4 10 -3 6 -8 10 -11 10 -2 0
-4 -4 -4 -10z"/>
<path d="M4797 2220 c3 -11 7 -20 9 -20 2 0 4 9 4 20 0 11 -4 20 -9 20 -5 0
-7 -9 -4 -20z"/>
<path d="M5451 2038 c-1 -9 -8 -21 -17 -26 -11 -6 -13 -12 -6 -16 13 -8 35 30
28 47 -2 7 -5 4 -5 -5z"/>
<path d="M5463 1995 c-3 -9 -3 -18 -1 -21 3 -3 8 4 11 16 6 23 -1 27 -10 5z"/>
<path d="M2091 1984 c0 -11 3 -14 6 -6 3 7 2 16 -1 19 -3 4 -6 -2 -5 -13z"/>
<path d="M2380 1915 c0 -8 2 -15 4 -15 2 0 6 7 10 15 3 8 1 15 -4 15 -6 0 -10
-7 -10 -15z"/>
<path d="M1960 1856 c0 -8 4 -17 9 -20 5 -4 7 3 4 14 -6 23 -13 26 -13 6z"/>
</g>
</svg>
